<svg id="Layer_1" data-name="Layer 1" xmlns="http://www.w3.org/2000/svg" viewBox="0 0 260.33 195.7"><defs><style>.cls-1,.cls-7,.cls-8,.cls-9{fill:none;}.cls-1,.cls-9{stroke:#9e60fc;}.cls-1{stroke-linecap:round;stroke-linejoin:round;stroke-width:5px;}.cls-2{fill:#9291ff;}.cls-3{fill:#b4c9ff;}.cls-4{fill:#ff26ff;}.cls-5{fill:#8055ff;}.cls-6{fill:#6093fc;}.cls-7{stroke:#f3f8f6;stroke-width:2px;}.cls-7,.cls-8,.cls-9{stroke-miterlimit:10;}.cls-8{stroke:#ff26ff;stroke-width:1.5px;}.cls-9{stroke-width:6px;}.cls-10{fill:#9e60fc;}</style></defs><path class="cls-1" d="M269.1,339.42c-4.83,0-7-4.7-4.88-10.51l.52-1.43c2.14-5.8,7.79-10.5,12.62-10.5h37.32c4.83,0,10.48-4.71,12.61-10.51l.19-.51c2.14-5.81-.05-10.51-4.88-10.51H285.27c-4.83,0-7-4.7-4.88-10.5l1.3-3.54c2.13-5.8,7.78-10.5,12.61-10.5H298c4.83,0,10.48-4.7,12.61-10.5l.19-.52c2.13-5.8-.05-10.5-4.89-10.5h-3.69c-4.83,0-7-4.71-4.89-10.51l3.3-9c2.14-5.8-.05-10.5-4.88-10.5" transform="translate(-160.59 -198.73)"/><path class="cls-2" d="M399,209.12h0c-2.19,6,.24,10.91,5.43,10.91h2.79c4.95,0,10.65-4.65,12.74-10.4l.19-.51c2.09-5.74-.23-10.39-5.18-10.39h-3.22C406.8,198.73,401.09,203.38,399,209.12Z" transform="translate(-160.59 -198.73)"/><path class="cls-3" d="M333.15,260.09l-.19.51c-2.08,5.74.23,10.4,5.18,10.4h39.95c5,0,10.66-4.66,12.75-10.4l.18-.51c2.09-5.74-.23-10.39-5.18-10.39H345.9C341,249.7,335.24,254.35,333.15,260.09Z" transform="translate(-160.59 -198.73)"/><path class="cls-4" d="M368.69,305.53h0c-2.14,5.89.24,10.65,5.31,10.65h5.05c5.08,0,10.92-4.76,13.06-10.65h0c2.15-5.88-.23-10.65-5.3-10.65h-5.06C376.68,294.88,370.83,299.65,368.69,305.53Z" transform="translate(-160.59 -198.73)"/><path class="cls-3" d="M314.85,198.73H221c-2.56,0-5.5,2.4-6.58,5.37l-5,13.77c-.43,1.19,0,2.16,1.08,2.16H361c2.51,0,5.41-2.37,6.48-5.28l3.9-10.74c1.07-2.92-.11-5.28-2.63-5.28Z" transform="translate(-160.59 -198.73)"/><path class="cls-5" d="M326.46,338.86l-12.17-.06H268.11c-4.73,0-6.87-4.66-4.78-10.4l.51-1.42c2.09-5.74,7.62-10.39,12.36-10.39h36.55c4.74,0,10.27-4.66,12.36-10.4l.18-.51c2.09-5.74-.05-10.39-4.78-10.39H284c-4.73,0-6.88-4.66-4.79-10.4l1.28-3.5c2.09-5.74,7.62-10.39,12.35-10.39h3.62c4.73,0,10.26-4.66,12.35-10.4l.19-.51c2.09-5.74-.05-10.39-4.79-10.39h-3.62c-4.73,0-6.87-4.66-4.78-10.4l3.23-8.88c2.09-5.74-.06-10.39-4.79-10.39H208.59L161.39,349.7c-2.09,5.75.05,10.4,4.79,10.4H317.66" transform="translate(-160.59 -198.73)"/><ellipse class="cls-6" cx="231.72" cy="291.69" rx="38.5" ry="17.24" transform="translate(-294.46 21.38) rotate(-40.46)"/><ellipse class="cls-7" cx="230.25" cy="292.1" rx="24.12" ry="15.36" transform="translate(-302.19 101.6) rotate(-53.02)"/><path class="cls-8" d="M185.62,302l25.23-.07,6.58-10.67L217,300l9.61-14.34-1.24,11,10.08-18.48-2.75,18.46,8.68-9.41-3.12,11.46,7.93-7.81-1.46,9.71,22.1-.86" transform="translate(-160.59 -198.73)"/><polygon class="cls-5" points="63.32 14.63 61.52 14.63 62.91 10.8 64.71 10.8 63.32 14.63"/><polygon class="cls-5" points="65.57 14.63 63.77 14.63 65.16 10.8 66.96 10.8 65.57 14.63"/><polygon class="cls-5" points="67.81 14.63 66.01 14.63 67.41 10.8 69.21 10.8 67.81 14.63"/><polygon class="cls-5" points="70.06 14.63 68.26 14.63 69.66 10.8 71.45 10.8 70.06 14.63"/><polygon class="cls-5" points="72.31 14.63 70.51 14.63 71.9 10.8 73.7 10.8 72.31 14.63"/><polygon class="cls-5" points="74.56 14.63 72.76 14.63 74.15 10.8 75.95 10.8 74.56 14.63"/><path class="cls-9" d="M319.35,371h2.32c5.06,0,12.67-4.77,17-10.64l.39-.52c4.31-5.88,3.71-10.64-1.36-10.64h-12" transform="translate(-160.59 -198.73)"/><path class="cls-10" d="M331.53,333.22l-6.8,17.61c-11.93,32.51-36.22,43.6-61.33,43.6-23.92,0-40.13-7.84-30.69-40.22L237.14,342l3.21-8.81h91.18Z" transform="translate(-160.59 -198.73)"/></svg>