<svg id="Layer_1" data-name="Layer 1" xmlns="http://www.w3.org/2000/svg" viewBox="0 0 5669.29 5669.29"><defs><style>.cls-1,.cls-13{fill:#fff;}.cls-1,.cls-14,.cls-15{stroke:#1d1d1b;}.cls-1,.cls-2,.cls-5{stroke-linecap:round;}.cls-1,.cls-10,.cls-2,.cls-5{stroke-linejoin:round;}.cls-1{stroke-width:89.86px;}.cls-2,.cls-4{fill:#009fe3;}.cls-2{stroke:#683c11;stroke-width:24.25px;}.cls-3{fill:#1d71b8;}.cls-11,.cls-5{fill:none;}.cls-10,.cls-11,.cls-5,.cls-6,.cls-8,.cls-9{stroke:#312783;}.cls-5{stroke-width:51px;}.cls-10,.cls-16,.cls-6,.cls-8,.cls-9{fill:#2d2e83;}.cls-11,.cls-14,.cls-15,.cls-6,.cls-7,.cls-8,.cls-9{stroke-miterlimit:10;}.cls-6,.cls-7{stroke-width:47.35px;}.cls-7{fill:#36a9e1;stroke:#fff;}.cls-10,.cls-11,.cls-9{stroke-width:23.75px;}.cls-12{fill:#b17f4a;}.cls-13{font-size:294px;font-family:Rumba-Large, Rumba;}.cls-14,.cls-15{stroke-width:3px;}.cls-15{letter-spacing:-0.03em;}.cls-16{letter-spacing:0em;}.cls-17{font-size:12px;font-family:MyriadPro-Regular, Myriad Pro;}.cls-18{letter-spacing:-0.01em;}.cls-19{letter-spacing:-0.01em;}</style></defs><circle class="cls-1" cx="2837.3" cy="2855.03" r="1339.69"/><path class="cls-2" d="M2755.31,2220.57a102.16,102.16,0,0,1,102.16,102.16V2410a102.17,102.17,0,0,0,102.17,102.17h43.16A102.16,102.16,0,0,1,3105,2614.29v5a102.16,102.16,0,0,1-102.16,102.17h-43.16a102.16,102.16,0,0,0-102.17,102.16V2858a102.17,102.17,0,0,0,102.17,102.17h435.84a102.16,102.16,0,0,1,102.16,102.16v5a102.16,102.16,0,0,1-102.16,102.17H2959.64a102.2,102.2,0,0,0-95.3,65.26l-6.87,50.86v311.51"/><path class="cls-3" d="M2857.47,2011.23h-1070a52.78,52.78,0,0,0-52.78,52.77v135.33a21.24,21.24,0,0,0,21.24,21.24H3471.63a51.93,51.93,0,0,0,51.93-51.93V2063.16a51.93,51.93,0,0,0-51.93-51.93Z"/><path class="cls-4" d="M3739.24,2113.39h0a107.18,107.18,0,0,0,107.18,107.18h31.72a102.16,102.16,0,0,0,102.16-102.16v-5a102.16,102.16,0,0,0-102.16-102.16h-36.73A102.16,102.16,0,0,0,3739.24,2113.39Z"/><rect class="cls-4" x="3320.65" y="2512.13" width="659.66" height="209.34" rx="102.16"/><rect class="cls-4" x="3713.33" y="2960.18" width="266.97" height="209.34" rx="104.67"/><path class="cls-5" d="M3845.49,3642.86a102.17,102.17,0,0,0,102.17-102.17v-5a102.17,102.17,0,0,0-102.17-102.17H2927a101.82,101.82,0,0,1-39.77-8"/><path class="cls-4" d="M2662.47,3597.15H1836.81A102.17,102.17,0,0,1,1734.64,3495V2220.57H2755.31l103.05,1386.62Z"/><ellipse class="cls-6" cx="2324.76" cy="2875.85" rx="348.03" ry="359.92"/><ellipse class="cls-7" cx="2323.01" cy="2872.29" rx="314.12" ry="315.46"/><ellipse class="cls-8" cx="2115.69" cy="3006.26" rx="47.28" ry="34.13" transform="translate(-248.28 191.05) rotate(-4.88)"/><line class="cls-9" x1="2174.28" y1="2720.21" x2="2143" y2="3003.93"/><line class="cls-10" x1="2170.77" y1="2710.67" x2="2293.74" y2="2859.11"/><line class="cls-9" x1="2438.49" y1="2726.51" x2="2281" y2="2855.87"/><line class="cls-11" x1="2441.78" y1="2716" x2="2456.01" y2="3001.08"/><circle class="cls-11" cx="2423.95" cy="3003.18" r="32.5"/><path class="cls-12" d="M3707.42,3286a66.85,66.85,0,0,1,66.77,68.95c-10.13,335.39-104.54,604.5-563.32,598.81-384.45-4.76-581-235.52-562.32-597.06,2-38.37,28.27-70.7,66.69-70.7Z"/><text class="cls-13" transform="translate(1939.99 3592.01)"><tspan class="cls-14">Clo_Cl</tspan><tspan class="cls-15" x="855.52" y="0">o</tspan><tspan class="cls-16" x="998.11" y="0">Dry</tspan></text><text class="cls-17" transform="translate(1905.02 4619.3)"><tspan class="cls-18">L</tspan><tspan x="5.5" y="0">o</tspan><tspan class="cls-19" x="12.08" y="0">r</tspan><tspan x="15.89" y="0">em ipsum</tspan></text></svg>