<?xml version="1.0" encoding="utf-8"?>
<!-- Generator: Adobe Illustrator 26.0.1, SVG Export Plug-In . SVG Version: 6.00 Build 0)  -->
<svg version="1.1" id="Layer_1" xmlns="http://www.w3.org/2000/svg" xmlns:xlink="http://www.w3.org/1999/xlink" x="0px" y="0px"
	 viewBox="0 0 5669.3 5669.3" style="enable-background:new 0 0 5669.3 5669.3;" xml:space="preserve">
<style type="text/css">
	.st0{fill:#FFFFFF;stroke:#1D1D1B;stroke-width:50;stroke-linecap:round;stroke-linejoin:round;}
	.st1{fill:#009FE3;stroke:#683C11;stroke-width:24.25;stroke-linecap:round;stroke-linejoin:round;}
	.st2{fill:#1D71B8;}
	.st3{fill:#009FE3;}
	.st4{fill:none;stroke:#DF6A00;stroke-width:72;stroke-linecap:round;stroke-linejoin:round;}
	.st5{fill:#2D2E83;stroke:#312783;stroke-width:47.35;stroke-miterlimit:10;}
	.st6{fill:#36A9E1;stroke:#FFFFFF;stroke-width:47.35;stroke-miterlimit:10;}
	.st7{fill:#B17F4A;}
	.st8{font-family:'ArialMT';}
	.st9{font-size:12px;}
</style>
<circle class="st0" cx="2837.3" cy="2855" r="1339.7"/>
<path class="st1" d="M2755.3,2220.6c56.4,0,102.2,45.7,102.2,102.2v87.3c0,56.4,45.7,102.2,102.2,102.2h43.2
	c56.4,0,102.2,45.7,102.2,102.1v0v5c0,56.4-45.7,102.2-102.2,102.2c0,0,0,0,0,0h-43.2c-56.4,0-102.2,45.7-102.2,102.2c0,0,0,0,0,0
	v34.4c0,56.4,45.7,102.2,102.2,102.2h435.8c56.4,0,102.2,45.7,102.2,102.2v5c0,56.4-45.7,102.2-102.2,102.2c0,0,0,0,0,0h-435.9
	c-42.2,0-80,25.9-95.3,65.3l-6.9,50.9v311.5"/>
<path class="st2" d="M2857.5,2011.2h-1070c-29.1,0-52.8,23.6-52.8,52.8v135.3c0,11.7,9.5,21.2,21.2,21.2h1715.7
	c28.7,0,51.9-23.2,51.9-51.9v-105.5c0-28.7-23.2-51.9-51.9-51.9L2857.5,2011.2z"/>
<path class="st3" d="M3739.2,2113.4L3739.2,2113.4c0,59.2,48,107.2,107.2,107.2h31.7c56.4,0,102.2-45.7,102.2-102.2v-5
	c0-56.4-45.7-102.2-102.2-102.2h-36.7C3785,2011.2,3739.3,2057,3739.2,2113.4z"/>
<path class="st3" d="M3422.8,2512.1h455.3c56.4,0,102.2,45.7,102.2,102.2v5c0,56.4-45.7,102.2-102.2,102.2h-455.3
	c-56.4,0-102.2-45.7-102.2-102.2v-5C3320.6,2557.9,3366.4,2512.1,3422.8,2512.1z"/>
<path class="st3" d="M3818,2960.2h57.6c57.8,0,104.7,46.9,104.7,104.7v0c0,57.8-46.9,104.7-104.7,104.7H3818
	c-57.8,0-104.7-46.9-104.7-104.7v0C3713.3,3007,3760.2,2960.2,3818,2960.2z"/>
<path class="st4" d="M3845.5,3642.9c56.4,0,102.2-45.7,102.2-102.2v-5c0-56.4-45.7-102.2-102.2-102.2H2927c-13.7,0-27.2-2.7-39.8-8"
	/>
<path class="st3" d="M2662.5,3597.1h-825.7c-56.4,0-102.2-45.7-102.2-102.1V2220.6h1020.7l103.1,1386.6L2662.5,3597.1z"/>
<ellipse class="st5" cx="2324.8" cy="2875.8" rx="348" ry="359.9"/>
<ellipse class="st6" cx="2323" cy="2872.3" rx="314.1" ry="315.5"/>
<path class="st7" d="M3707.4,3286c36.9,0,66.8,30,66.8,66.9c0,0.7,0,1.4,0,2.1c-10.1,335.4-104.5,604.5-563.3,598.8
	c-384.4-4.8-581-235.5-562.3-597.1c2-38.4,28.3-70.7,66.7-70.7H3707.4z"/>
<text transform="matrix(1 0 0 1 1905.02 4619.2998)" class="st8 st9">L</text>
<text transform="matrix(1 0 0 1 1910.52 4619.2998)" class="st8 st9">o</text>
<text transform="matrix(1 0 0 1 1917.1 4619.2998)" class="st8 st9">r</text>
<text transform="matrix(1 0 0 1 1920.91 4619.2998)" class="st8 st9">em ipsum</text>
</svg>
