<svg id="Layer_1" data-name="Layer 1" xmlns="http://www.w3.org/2000/svg" viewBox="0 0 5669.29 5669.29"><defs><style>.cls-1,.cls-2,.cls-5{fill:#fff;}.cls-1,.cls-2,.cls-3{stroke:#1d1d1b;}.cls-1,.cls-2{stroke-linecap:round;}.cls-1,.cls-2,.cls-7{stroke-linejoin:round;}.cls-1{stroke-width:80.54px;}.cls-2{stroke-width:21.77px;}.cls-3,.cls-4{fill:#1d1d1b;stroke-width:44.1px;}.cls-3,.cls-4,.cls-6{stroke-miterlimit:10;}.cls-4,.cls-6,.cls-7{stroke:#fff;}.cls-6,.cls-7{fill:none;stroke-width:22.12px;}</style></defs><circle class="cls-1" cx="2956.3" cy="2894.64" r="1200.68"/><path class="cls-2" d="M2953.07,2376.87H2069.53c-24.06,0-52,23.05-62.31,51.48l-48,132c-4.17,11.44.31,20.72,10,20.72H3385.85c23.68,0,51.13-22.68,61.31-50.66l37.45-102.9c10.19-28-.75-50.66-24.43-50.66Z"/><path class="cls-2" d="M3644.87,2476.53h0c-21,57.75,1.56,104.56,50.44,104.56h26.19c46.59,0,100.59-44.62,120.63-99.66l1.78-4.9c20-55-1.5-99.66-48.08-99.66H3765.5C3718.91,2376.87,3664.9,2421.49,3644.87,2476.53Z"/><path class="cls-2" d="M3121.38,2965.17l-1.78,4.89c-20,55,1.5,99.66,48.09,99.66h376c46.59,0,100.59-44.62,120.63-99.66l1.78-4.89c20-55-1.49-99.66-48.08-99.66H3242C3195.43,2865.51,3141.42,2910.13,3121.38,2965.17Z"/><path class="cls-2" d="M3285.65,3404.7h0c-20.53,56.39,1.52,102.11,49.26,102.11h47.58c47.73,0,103.07-45.72,123.59-102.11h0c20.53-56.39-1.53-102.11-49.26-102.11h-47.58C3361.5,3302.59,3306.17,3348.31,3285.65,3404.7Z"/><path class="cls-2" d="M2500.58,3620.09l5-13.62c20-55,74-99.66,120.63-99.66H2986c46.58,0,100.59-44.62,120.63-99.67l1.78-4.89c20-55-1.5-99.66-48.09-99.66H2700.49c-46.59,0-68.11-44.62-48.08-99.66l12.21-33.54c20-55,74-99.67,120.63-99.67h35.63c46.59,0,100.6-44.62,120.63-99.66l1.78-4.89c20-55-1.49-99.66-48.08-99.66h-35.63c-46.59,0-68.12-44.62-48.09-99.67l31-85.09c20-55-1.5-99.66-48.08-99.66H1951.63l-452.5,1243.22c-20,55,1.5,99.66,48.09,99.66H3232.73c46.59,0,100.6-44.62,120.63-99.66l1.78-4.9c20-55-1.49-99.66-48.08-99.66h-758.4C2502.07,3719.75,2480.54,3675.13,2500.58,3620.09Z"/><ellipse class="cls-3" cx="2204.54" cy="3205.44" rx="411.93" ry="263.74" transform="translate(-1680.88 3009.58) rotate(-52.6)"/><ellipse class="cls-4" cx="2204.36" cy="3201.84" rx="363.22" ry="236.62" transform="translate(-1671.66 2906.16) rotate(-51.09)"/><ellipse class="cls-5" cx="1977.36" cy="3337.46" rx="46.22" ry="30.28" transform="translate(-1366.96 1371.72) rotate(-28.91)"/><line class="cls-6" x1="2132.95" y1="3047.9" x2="2001.62" y2="3335.1"/><line class="cls-7" x1="2133.46" y1="3038.24" x2="2184.13" y2="3188.49"/><line class="cls-6" x1="2357.01" y1="3054.27" x2="2174.41" y2="3185.22"/><line class="cls-6" x1="2363.7" y1="3043.63" x2="2270.86" y2="3332.21"/><ellipse class="cls-6" cx="2242.62" cy="3334.34" rx="37.46" ry="24.46" transform="translate(-1759.12 2969.29) rotate(-50.86)"/></svg>