<svg id="Layer_1" data-name="Layer 1" xmlns="http://www.w3.org/2000/svg" viewBox="0 0 566.93 566.93">
  <defs>
    <style>
      .cls-1 {
        fill: #42c0f0;
      }

      .cls-2 {
        fill: #bce2ee;
      }

      .cls-3 {
        fill: #b9e2f4;
      }

      .cls-4 {
        fill: #97d5f0;
      }

      .cls-5 {
        fill: #2d509f;
      }

      .cls-6 {
        fill: #fff;
        stroke: #1e1e1c;
        stroke-width: 6px;
      }

      .cls-6, .cls-7 {
        stroke-miterlimit: 10;
      }

      .cls-7 {
        fill: none;
        stroke: #fff;
        stroke-width: 5.61px;
      }
    </style>
  </defs>
  <g>
    <path class="cls-1" d="M312.78,137.13h-152a7.5,7.5,0,0,0-7.5,7.5v19.22a3,3,0,0,0,3,3H400a7.37,7.37,0,0,0,7.37-7.37v-15a7.37,7.37,0,0,0-7.37-7.38Z"/>
    <path class="cls-2" d="M438,151.64h0a15.22,15.22,0,0,0,15.23,15.22h4.5a14.5,14.5,0,0,0,14.51-14.51v-.71a14.51,14.51,0,0,0-14.51-14.51h-5.22A14.51,14.51,0,0,0,438,151.64Z"/>
    <rect class="cls-3" x="378.56" y="208.27" width="93.69" height="29.73" rx="14.51"/>
    <rect class="cls-4" x="434.33" y="271.91" width="37.92" height="29.73" rx="14.87"/>
    <path class="cls-5" d="M312.78,318.14v-2a14.51,14.51,0,0,1,14.51-14.51h61.9a14.51,14.51,0,0,0,14.51-14.51v-.71a14.51,14.51,0,0,0-14.51-14.51h-61.9a14.51,14.51,0,0,1-14.51-14.51v-4.88A14.5,14.5,0,0,1,327.29,238h6.13a14.51,14.51,0,0,0,14.51-14.51v-.72a14.51,14.51,0,0,0-14.51-14.51h-6.13a14.5,14.5,0,0,1-14.51-14.51V181.37a14.51,14.51,0,0,0-14.51-14.51h-145v181a14.51,14.51,0,0,0,14.51,14.51H457.74a14.51,14.51,0,0,0,14.51-14.51v-.71a14.5,14.5,0,0,0-14.51-14.51H327.29A14.51,14.51,0,0,1,312.78,318.14Z"/>
    <ellipse class="cls-6" cx="242.5" cy="260.57" rx="45.74" ry="47.3"/>
    <ellipse class="cls-1" cx="242.5" cy="260.57" rx="39.4" ry="39.57"/>
    <path class="cls-7" d="M201,260.1s20.58-12.34,28.28-12.21c9.3.16,11.89,29.82,35.14,12.21,3.82-2.89,19.16,0,19.16,0"/>
  </g>
</svg>
