<svg xmlns="http://www.w3.org/2000/svg" viewBox="0 0 5669.29 5669.29"><defs><style>.cls-1{fill:#ff94bb;}.cls-2,.cls-3{fill:#fff;}.cls-2,.cls-3,.cls-4,.cls-5,.cls-8{stroke:#1d1d1b;}.cls-2,.cls-3,.cls-4,.cls-8{stroke-linecap:round;}.cls-2,.cls-3,.cls-4,.cls-7,.cls-8{stroke-linejoin:round;}.cls-2,.cls-4{stroke-width:22.73px;}.cls-3{stroke-width:22.23px;}.cls-4,.cls-7,.cls-8{fill:none;}.cls-5,.cls-6{fill:#1d1d1b;stroke-miterlimit:10;stroke-width:38.23px;}.cls-6{stroke:#fff;}.cls-7{stroke:#e9009e;stroke-width:24.02px;}.cls-8{stroke-width:22.1px;}.cls-9{font-size:294px;fill:#e9009e;font-family:Rumba-Large, Rumba;}</style></defs><g id="Layer_3" data-name="Layer 3"><circle class="cls-1" cx="2863.45" cy="2796.48" r="1315.58"/><path class="cls-2" d="M3210.8,1977.35H2288c-25.14,0-54.28,24.08-65.09,53.78L2172.69,2169c-4.35,11.95.33,21.63,10.44,21.63h1479.7c24.73,0,53.4-23.69,64-52.91L3766,2030.26c10.63-29.22-.79-52.91-25.53-52.91Z"/><path class="cls-3" d="M3315.53,3380.62l-119.62-.66H2742c-46.53,0-67.28-46.6-46.35-104.09l5.17-14.23c20.93-57.49,75.61-104.09,122.13-104.09h359.37c46.53,0,101.2-46.61,122.13-104.1l1.86-5.11c20.92-57.49.17-104.09-46.35-104.09H2900.59c-46.52,0-67.27-46.61-46.35-104.1l12.76-35c20.92-57.49,75.6-104.1,122.12-104.1h35.59c46.52,0,101.2-46.6,122.12-104.09l1.86-5.11c20.93-57.49.18-104.1-46.35-104.1h-35.58c-46.53,0-67.28-46.6-46.35-104.09l32.34-88.88c20.93-57.49.18-104.1-46.35-104.1H2164.82L1692.2,3489.17c-20.93,57.49-.17,104.09,46.35,104.09H3227.67"/><path class="cls-4" d="M3297.41,3705h22.31c48.66,0,105.07-46.61,126-104.1l1.86-5.1c20.92-57.5-1.56-104.1-50.22-104.1h-115"/><ellipse class="cls-5" cx="2420.23" cy="2886.25" rx="357.12" ry="228.64" transform="translate(-1342.65 3055.62) rotate(-52.6)"/><ellipse class="cls-6" cx="2420.07" cy="2883.13" rx="314.89" ry="205.13" transform="translate(-1343.43 2955.48) rotate(-51.09)"/><path class="cls-7" d="M2062.1,2948.5l201.78-.52,54.79-91.31-5.26,74.86,79.75-122.68L2381,2902.78l84.37-158.08-25.74,157.92,71.31-80.47-27.27,98,65-66.85L2535,2936.4l177-7.26"/><path class="cls-8" d="M2364.67,3586c-92.83,316.9,62.42,393.58,292.25,393.58,241.23,0,475.33-108.53,592.09-426.68l66.52-172.32"/><polygon points="2330.32 2112.36 2312.17 2112.36 2326.49 2073.04 2344.63 2073.04 2330.32 2112.36"/><polygon points="2352.98 2112.36 2334.84 2112.36 2349.15 2073.04 2367.3 2073.04 2352.98 2112.36"/><polygon points="2375.65 2112.36 2357.5 2112.36 2371.81 2073.04 2389.96 2073.04 2375.65 2112.36"/><polygon points="2398.31 2112.36 2380.16 2112.36 2394.47 2073.04 2412.62 2073.04 2398.31 2112.36"/><polygon points="2420.97 2112.36 2402.82 2112.36 2417.13 2073.04 2435.28 2073.04 2420.97 2112.36"/><polygon points="2443.63 2112.36 2425.49 2112.36 2439.8 2073.04 2457.94 2073.04 2443.63 2112.36"/><text class="cls-9" transform="translate(3590.18 2521.77) rotate(-12.36)">Clo</text><text class="cls-9" transform="matrix(0.93, 0.37, -0.37, 0.93, 3268.8, 2796.78)">Clo</text><text class="cls-9" transform="translate(3385.2 3281.82) rotate(16.69)">Dry</text></g></svg>