<svg id="Layer_1" data-name="Layer 1" xmlns="http://www.w3.org/2000/svg" viewBox="0 0 281.03 281.03"><defs><style>.cls-1{fill:#edd88e;}.cls-10,.cls-2,.cls-8,.cls-9{fill:none;}.cls-10,.cls-2{stroke:#9e60fc;}.cls-2{stroke-linecap:round;stroke-linejoin:round;stroke-width:4px;}.cls-3{fill:#9291ff;}.cls-4{fill:#b4c9ff;}.cls-5{fill:#ff26ff;}.cls-6{fill:#8055ff;}.cls-7{fill:#6093fc;}.cls-8{stroke:#f3f8f6;stroke-width:2px;}.cls-10,.cls-8,.cls-9{stroke-miterlimit:10;}.cls-9{stroke:#ff26ff;stroke-width:1.5px;}.cls-10{stroke-width:5px;}.cls-11{fill:#9e60fc;}</style></defs><circle class="cls-1" cx="140.52" cy="140.52" r="140.52"/><path class="cls-2" d="M260.22,339.25c-4.27,0-6.18-4.23-4.26-9.46l.48-1.29c1.92-5.22,6.94-9.45,11.21-9.45h33c4.27,0,9.29-4.24,11.21-9.46l.17-.47c1.92-5.22,0-9.45-4.26-9.45h-33c-4.28,0-6.18-4.24-4.26-9.46l1.17-3.18c1.92-5.22,6.94-9.46,11.21-9.46h3.27c4.27,0,9.29-4.23,11.21-9.46l.17-.46c1.92-5.22,0-9.46-4.26-9.46H290c-4.27,0-6.18-4.23-4.26-9.45l3-8.08c1.92-5.22,0-9.46-4.25-9.46" transform="translate(-141.77 -142.08)"/><path class="cls-3" d="M375.81,221.94h0c-2,5.43.14,9.82,4.73,9.82H383c4.38,0,9.45-4.19,11.33-9.36l.17-.46c1.88-5.16-.14-9.36-4.52-9.36h-2.84C382.76,212.58,377.69,216.78,375.81,221.94Z" transform="translate(-141.77 -142.08)"/><path class="cls-4" d="M317.3,267.83l-.17.46c-1.88,5.17.15,9.36,4.52,9.36H357c4.37,0,9.44-4.19,11.32-9.36l.17-.46c1.88-5.17-.14-9.36-4.51-9.36H328.63C324.26,258.47,319.18,262.66,317.3,267.83Z" transform="translate(-141.77 -142.08)"/><path class="cls-5" d="M348.44,308.74h0c-1.93,5.3.15,9.59,4.63,9.59h4.47c4.48,0,9.68-4.29,11.6-9.59h0c1.93-5.29-.14-9.58-4.62-9.58h-4.47C355.57,299.16,350.37,303.45,348.44,308.74Z" transform="translate(-141.77 -142.08)"/><path class="cls-4" d="M301.5,212.58h-83c-2.26,0-4.88,2.17-5.85,4.84l-4.51,12.4c-.39,1.07,0,1.94.94,1.94h133c2.22,0,4.8-2.13,5.76-4.75l3.51-9.67c1-2.63-.07-4.76-2.29-4.76Z" transform="translate(-141.77 -142.08)"/><path class="cls-6" d="M310.91,338.75l-10.75-.06H259.35c-4.19,0-6.05-4.19-4.17-9.36l.46-1.27c1.89-5.17,6.8-9.36,11-9.36h32.32c4.18,0,9.1-4.19,11-9.36l.16-.46c1.89-5.17,0-9.36-4.16-9.36H273.61c-4.19,0-6.05-4.19-4.17-9.36l1.14-3.15c1.89-5.17,6.8-9.36,11-9.36h3.2c4.19,0,9.1-4.19,11-9.36l.17-.46c1.88-5.17,0-9.36-4.17-9.36h-3.2c-4.18,0-6-4.19-4.16-9.36l2.91-8c1.88-5.17,0-9.36-4.17-9.36H207.45L165,348.51c-1.88,5.17,0,9.36,4.17,9.36H303" transform="translate(-141.77 -142.08)"/><ellipse class="cls-7" cx="227.46" cy="296.28" rx="34.41" ry="15.35" transform="translate(-280.47 80.42) rotate(-41.09)"/><ellipse class="cls-8" cx="226.17" cy="296.65" rx="21.65" ry="13.62" transform="translate(-288.55 162.4) rotate(-53.88)"/><path class="cls-9" d="M186.66,305.54l22.3-.05,5.88-9.61-.44,7.87L223,290.84l-1.17,9.89,9-16.64-2.55,16.62,7.73-8.47-2.83,10.32,7.06-7-1.35,8.74,19.54-.76" transform="translate(-141.77 -142.08)"/><polygon class="cls-6" points="79.27 83.67 77.67 83.67 78.93 80.23 80.52 80.23 79.27 83.67"/><polygon class="cls-6" points="81.25 83.67 79.66 83.67 80.92 80.23 82.51 80.23 81.25 83.67"/><polygon class="cls-6" points="83.24 83.67 81.65 83.67 82.9 80.23 84.49 80.23 83.24 83.67"/><polygon class="cls-6" points="85.22 83.67 83.63 83.67 84.89 80.23 86.48 80.23 85.22 83.67"/><polygon class="cls-6" points="87.21 83.67 85.62 83.67 86.87 80.23 88.47 80.23 87.21 83.67"/><polygon class="cls-6" points="89.2 83.67 87.61 83.67 88.86 80.23 90.45 80.23 89.2 83.67"/><path class="cls-10" d="M304.44,367.68h2.05c4.48,0,11.23-4.28,15.07-9.57l.35-.47c3.85-5.29,3.34-9.58-1.14-9.58H310.2" transform="translate(-141.77 -142.08)"/><path class="cls-11" d="M315.43,333.68l-6.12,15.85c-10.74,29.26-32.27,39.25-54.46,39.25-21.14,0-35.43-7.06-26.89-36.21l4-11,2.88-7.92h80.59Z" transform="translate(-141.77 -142.08)"/></svg>