<svg id="Layer_1" data-name="Layer 1" xmlns="http://www.w3.org/2000/svg" viewBox="0 0 291.94 283.46"><defs><style>.cls-1{fill:#dae2ff;}.cls-10,.cls-2,.cls-8,.cls-9{fill:none;}.cls-10,.cls-2{stroke:#9e60fc;}.cls-2{stroke-linecap:round;stroke-linejoin:round;stroke-width:4px;}.cls-3{fill:#9291ff;}.cls-4{fill:#b4c9ff;}.cls-5{fill:#ff26ff;}.cls-6{fill:#8055ff;}.cls-7{fill:#6093fc;}.cls-8{stroke:#f3f8f6;stroke-width:2px;}.cls-10,.cls-8,.cls-9{stroke-miterlimit:10;}.cls-9{stroke:#ff26ff;stroke-width:1.5px;}.cls-10{stroke-width:5px;}.cls-11{fill:#9e60fc;}.cls-12{font-size:39px;font-family:Delaney-Semibold, Delaney;font-weight:600;letter-spacing:0em;}.cls-12,.cls-18{fill:#1510fa;}.cls-13{letter-spacing:0.01em;}.cls-14{letter-spacing:-0.01em;}.cls-15{letter-spacing:0.01em;}.cls-16{letter-spacing:0em;}.cls-17{letter-spacing:0.01em;}.cls-18{font-size:16px;font-family:Delaney-Light, Delaney;font-weight:300;}.cls-19{letter-spacing:-0.01em;}.cls-20{letter-spacing:0em;}.cls-21{letter-spacing:-0.01em;}</style></defs><circle class="cls-1" cx="141.73" cy="141.73" r="141.73"/><path class="cls-2" d="M280.9,286.86c-3.75,0-6.78-3.71-6.76-8.3v-1.13c0-4.59,3.07-8.31,6.82-8.31h29c3.75,0,6.8-3.72,6.82-8.3v-.41c0-4.59-3-8.3-6.76-8.3H281c-3.75,0-6.78-3.72-6.76-8.31V241c0-4.59,3.07-8.31,6.82-8.31H284c3.75,0,6.8-3.71,6.82-8.3V224c0-4.58-3-8.3-6.76-8.3h-2.86c-3.75,0-6.78-3.72-6.76-8.3l0-7.09c0-4.59-3-8.31-6.75-8.31" transform="translate(-141.77 -141.58)"/><path class="cls-3" d="M344.9,183.86h0c0,4.76,3.27,8.62,7.3,8.62h2.16c3.84,0,6.95-3.68,6.95-8.22v-.4c0-4.54-3.11-8.22-6.95-8.22h-2.5C348,175.64,344.9,179.32,344.9,183.86Z" transform="translate(-141.77 -141.58)"/><path class="cls-4" d="M308.19,224.15v.41c0,4.53,3.12,8.21,7,8.21h31c3.84,0,7-3.68,7-8.21v-.41c0-4.54-3.12-8.22-7-8.22h-31C311.31,215.93,308.19,219.61,308.19,224.15Z" transform="translate(-141.77 -141.58)"/><path class="cls-5" d="M348.61,260.08h0c0,4.65,3.19,8.42,7.13,8.42h3.92c3.94,0,7.13-3.77,7.13-8.42h0c0-4.65-3.19-8.42-7.13-8.42h-3.92C351.8,251.66,348.61,255.43,348.61,260.08Z" transform="translate(-141.77 -141.58)"/><path class="cls-4" d="M276.66,175.64H203.8c-2,0-3.59,1.9-3.59,4.25v10.88a1.59,1.59,0,0,0,1.45,1.71H318.47c2,0,3.54-1.87,3.54-4.18v-8.48c0-2.31-1.58-4.18-3.54-4.18Z" transform="translate(-141.77 -141.58)"/><path class="cls-6" d="M325.25,286.43l-9.46-.06H280c-3.67,0-6.65-3.68-6.65-8.21V277c0-4.54,3-8.22,6.65-8.22h28.37c3.68,0,6.65-3.67,6.65-8.21v-.41c0-4.54-3-8.21-6.65-8.21H280c-3.67,0-6.65-3.68-6.65-8.22V241c0-4.54,3-8.22,6.65-8.22h2.81c3.67,0,6.65-3.68,6.65-8.21v-.41c0-4.54-3-8.22-6.65-8.22H280c-3.67,0-6.65-3.67-6.65-8.21v-7c0-4.54-3-8.22-6.65-8.22H200.21V295c0,4.53,3,8.21,6.65,8.21H324.42" transform="translate(-141.77 -141.58)"/><ellipse class="cls-7" cx="238.4" cy="249.13" rx="25.22" ry="16.15" transform="translate(-246.08 145.61) rotate(-52.6)"/><ellipse class="cls-8" cx="95.61" cy="107.88" rx="13.46" ry="16.89"/><path class="cls-9" d="M205.53,257.27l19.56-.06,2.1-8.43,2.13,6.91,3.41-11.33,2.13,8.68,2.61-14.61L240.55,253l4.07-7.43.82,9.06,3.95-6.18,1.6,7.67,16.92-.67" transform="translate(-141.77 -141.58)"/><rect class="cls-6" x="67.05" y="42.6" width="1.4" height="3.03"/><rect class="cls-6" x="68.8" y="42.6" width="1.4" height="3.03"/><rect class="cls-6" x="70.54" y="42.6" width="1.4" height="3.03"/><rect class="cls-6" x="72.28" y="42.6" width="1.4" height="3.03"/><rect class="cls-6" x="74.03" y="42.6" width="1.4" height="3.03"/><rect class="cls-6" x="75.77" y="42.6" width="1.4" height="3.03"/><path class="cls-10" d="M328.81,311.83h1.8c3.93,0,8.49-3.77,10.18-8.41l.15-.41c1.69-4.65-.13-8.41-4.06-8.41H327.6" transform="translate(-141.77 -141.58)"/><path class="cls-11" d="M327.6,282l-.31,13.92c-.08,25.69-15.8,34.46-35.28,34.46-18.57,0-33.36-6.19-35.18-31.79V282H327.6Z" transform="translate(-141.77 -141.58)"/><text class="cls-12" transform="translate(29.89 224.95)">C<tspan class="cls-13" x="30.42" y="0">lo</tspan><tspan class="cls-14" x="63.22" y="0">-</tspan><tspan x="79.87" y="0">C</tspan><tspan class="cls-15" x="110.29" y="0">lo</tspan><tspan class="cls-16" x="143.09" y="0">D</tspan><tspan class="cls-17" x="188.29" y="0">ry</tspan></text><text class="cls-18" transform="translate(59.76 247.27)"><tspan class="cls-19">C</tspan><tspan class="cls-20" x="11.49" y="0">lean_</tspan><tspan class="cls-21" x="47.23" y="0">C</tspan><tspan x="58.72" y="0">lothes_</tspan><tspan class="cls-21" x="104.29" y="0">C</tspan><tspan x="115.77" y="0">lose-up</tspan></text></svg>