<svg id="Layer_1" data-name="Layer 1" xmlns="http://www.w3.org/2000/svg" viewBox="0 0 2797.83 3186.16"><defs><style>.cls-1,.cls-13,.cls-14,.cls-2,.cls-3{fill:none;}.cls-1,.cls-10,.cls-11,.cls-12,.cls-13,.cls-14,.cls-4,.cls-8{stroke:#312783;}.cls-1,.cls-10,.cls-11,.cls-13,.cls-4,.cls-5,.cls-8,.cls-9{stroke-miterlimit:10;}.cls-1{stroke-width:84.88px;}.cls-2,.cls-3{stroke:#683c11;}.cls-14,.cls-2,.cls-3{stroke-linecap:round;}.cls-12,.cls-14,.cls-2,.cls-3{stroke-linejoin:round;}.cls-2{stroke-width:22.56px;}.cls-3{stroke-width:22.49px;}.cls-4{font-size:314.99px;fill:#312783;stroke-width:5.55px;font-family:Rumba-Small, Rumba;}.cls-5,.cls-7{fill:#009fe3;}.cls-5{stroke:#634e42;stroke-width:22.69px;}.cls-6{fill:#1d71b8;}.cls-10,.cls-11,.cls-12,.cls-8{fill:#2d2e83;}.cls-8,.cls-9{stroke-width:48.39px;}.cls-9{fill:#36a9e1;stroke:#fff;}.cls-10{stroke-width:1.02px;}.cls-11,.cls-12,.cls-13{stroke-width:24.27px;}.cls-14{stroke-width:52.12px;}.cls-15{fill:#caba9f;}.cls-16{fill:#683b11;}.cls-17{fill:#925f36;}.cls-18{fill:#c99d66;}.cls-19{fill:#b17f4a;}</style></defs><ellipse class="cls-1" cx="1398.92" cy="1705.87" rx="1356.47" ry="1401.42"/><path class="cls-2" d="M3303.31,2394.1c43.67,0,66.19,51.16,50.3,114.26L3329,2605.91c-15.9,63.1,6.62,114.25,50.3,114.25h33.41c43.67,0,66.19,51.16,50.29,114.26l-1.41,5.6c-7.95,31.55-24,60.12-43.51,80.79s-42.52,33.47-64.35,33.47h-33.41c-43.68,0-92,51.15-107.86,114.25L3202.8,3107a157,157,0,0,0-5,44.48" transform="translate(-1462.44 -1098.14)"/><path class="cls-3" d="M3587.19,2430.26c51.28,0,77.72,43.26,59,96.64l-28.85,82.51c-18.66,53.37,7.77,96.64,59.05,96.64h39.22c51.28,0,77.72,43.26,59.06,96.64l-1.66,4.74c-18.66,53.37-75.36,96.64-126.64,96.64H3607.2c-51.28,0-108,43.26-126.64,96.64l-11.37,32.52c-18.67,53.37,7.77,96.64,59,96.64h108.54" transform="translate(-1462.44 -1098.14)"/><text class="cls-4" transform="matrix(0.89, -0.5, 0.47, 0.88, 685.46, 956.13)">C</text><text class="cls-4" transform="matrix(0.93, -0.41, 0.38, 0.93, 854.42, 864.06)">l</text><text class="cls-4" transform="matrix(0.97, -0.32, 0.29, 0.96, 932.01, 827.47)">o</text><text class="cls-4" transform="matrix(1, -0.19, 0.16, 0.99, 1093.56, 771.54)">_</text><text class="cls-4" transform="matrix(1.01, -0.04, 0.02, 1.01, 1297.26, 733.57)">C</text><text class="cls-4" transform="matrix(1.01, 0.07, -0.08, 1.01, 1487.18, 729.18)">l</text><text class="cls-4" transform="matrix(1, 0.17, -0.18, 1, 1571.69, 732.6)">o</text><text class="cls-4" transform="matrix(0.96, 0.32, -0.32, 0.96, 1732.49, 757.44)">D</text><text class="cls-4" transform="matrix(0.9, 0.45, -0.45, 0.91, 1934.47, 827.29)">r</text><text class="cls-4" transform="matrix(0.84, 0.56, -0.55, 0.85, 2045.79, 881.13)">y</text><path class="cls-5" d="M3047.45,2368c56.73,0,86,47.52,65.33,106.13l-31.92,90.61c-20.65,58.61,8.6,106.13,65.33,106.13h43.4c56.73,0,86,47.51,65.33,106.12l-1.83,5.21c-20.65,58.61-83.38,106.13-140.11,106.13h-43.4c-56.73,0-119.46,47.51-140.11,106.12l-12.58,35.72c-20.65,58.61,8.6,106.12,65.33,106.12h438.23c56.73,0,86,47.52,65.33,106.13l-1.83,5.21c-20.65,58.61-83.38,106.12-140.11,106.12H2905.61c-43.64,0-90.84,28.13-119.69,67.79l-25.53,52.84L2646.4,3798" transform="translate(-1462.44 -1098.14)"/><path class="cls-6" d="M3226.78,2150.56H2150.87c-29.3,0-61.71,24.55-72.37,54.82L2029,2346c-4.29,12.19,1.79,22.06,13.58,22.06H3767.68c28.84,0,60.72-24.15,71.22-53.94l38.6-109.58c10.5-29.79-4.37-53.94-33.21-53.94Z" transform="translate(-1462.44 -1098.14)"/><path class="cls-7" d="M3958.38,2268.82h0c-21.67,61.48,9,111.33,68.54,111.33h31.89c56.73,0,119.46-47.52,140.11-106.13l1.83-5.21c20.65-58.61-8.6-106.12-65.33-106.12h-36.93C4041.75,2162.7,3979,2210.21,3958.38,2268.82Z" transform="translate(-1462.44 -1098.14)"/><path class="cls-7" d="M3856.24,2794.39h0c-21.66,61.49,9,111.34,68.54,111.34h31.89c56.74,0,119.46-47.52,140.11-106.13l1.84-5.21c20.65-58.61-8.6-106.12-65.34-106.12h-36.93C3939.62,2688.27,3876.89,2735.78,3856.24,2794.39Z" transform="translate(-1462.44 -1098.14)"/><path class="cls-7" d="M2489.07,3610.27l-1.83,9.09c-20.65,102.22,8.6,185.1,65.33,185.1h457.82c56.73,0,119.46-82.88,140.11-185.1l1.84-9.09c20.64-102.23-8.61-185.1-65.34-185.1H2629.18C2572.45,3425.17,2509.72,3508,2489.07,3610.27Z" transform="translate(-1462.44 -1098.14)"/><path class="cls-7" d="M2450.33,3798H1620.15c-56.73,0-86-47.52-65.33-106.13L2021.2,2368H3047.45l-403.83,1440.4Z" transform="translate(-1462.44 -1098.14)"/><ellipse class="cls-8" cx="2374.74" cy="3048.71" rx="434.78" ry="300.91" transform="translate(-2922.62 1473.69) rotate(-45)"/><ellipse class="cls-9" cx="2374.28" cy="3045.02" rx="384.93" ry="268.87" transform="translate(-2899.64 1328.88) rotate(-42.85)"/><ellipse class="cls-10" cx="2116.8" cy="3184.19" rx="51.79" ry="32.55" transform="translate(-2458.87 -133.79) rotate(-20.89)"/><line class="cls-11" x1="817.95" y1="1788.91" x2="682.67" y2="2083.62"/><line class="cls-12" x1="817.92" y1="1778.99" x2="887.24" y2="1933.19"/><line class="cls-11" x1="1081.3" y1="1795.45" x2="875.61" y2="1929.82"/><line class="cls-13" x1="1088.46" y1="1784.53" x2="998.44" y2="2080.66"/><ellipse class="cls-13" cx="2427.87" cy="3180.99" rx="39.72" ry="27.78" transform="translate(-2973.95 1379.63) rotate(-42.53)"/><path class="cls-14" d="M3794.87,3497.55c56.73,0,119.46-47.51,140.11-106.12l1.83-5.21c20.65-58.61-8.6-106.13-65.33-106.13H2948c-14.18,0-26.65-3-37-8.34" transform="translate(-1462.44 -1098.14)"/><ellipse class="cls-15" cx="1293.83" cy="2111.44" rx="20.79" ry="45.47"/><ellipse class="cls-15" cx="1323.69" cy="2074.16" rx="20.79" ry="45.47"/><ellipse class="cls-15" cx="2258.36" cy="2107.42" rx="20.79" ry="45.47"/><ellipse class="cls-15" cx="2236.84" cy="2064.16" rx="20.79" ry="45.47"/><ellipse class="cls-15" cx="2200.95" cy="2034.99" rx="20.79" ry="45.47"/><ellipse class="cls-15" cx="2167.95" cy="2016.47" rx="20.79" ry="45.47"/><ellipse class="cls-15" cx="2132.68" cy="2015.96" rx="20.79" ry="45.47"/><ellipse class="cls-15" cx="1350.94" cy="2039.99" rx="20.79" ry="45.47"/><ellipse class="cls-15" cx="1863.61" cy="2024.7" rx="20.79" ry="45.47"/><ellipse class="cls-15" cx="1830.24" cy="2025.28" rx="20.79" ry="45.47"/><ellipse class="cls-15" cx="1794.35" cy="2023.62" rx="20.79" ry="45.47"/><ellipse class="cls-15" cx="1761.34" cy="2023.62" rx="20.79" ry="45.47"/><ellipse class="cls-15" cx="1898.42" cy="2022.35" rx="20.79" ry="45.47"/><ellipse class="cls-15" cx="2106.52" cy="2024.61" rx="20.79" ry="45.47"/><ellipse class="cls-15" cx="2073.14" cy="2025.18" rx="20.79" ry="45.47"/><ellipse class="cls-15" cx="2037.25" cy="2023.52" rx="20.79" ry="45.47"/><ellipse class="cls-15" cx="2004.25" cy="2023.52" rx="20.79" ry="45.47"/><ellipse class="cls-15" cx="1968.98" cy="2023" rx="20.79" ry="45.47"/><ellipse class="cls-15" cx="1933.09" cy="2022.43" rx="20.79" ry="45.47"/><ellipse class="cls-15" cx="1480.19" cy="2030.89" rx="20.79" ry="45.47"/><ellipse class="cls-15" cx="1446.81" cy="2031.47" rx="20.79" ry="45.47"/><ellipse class="cls-15" cx="1410.92" cy="2029.8" rx="20.79" ry="45.47"/><ellipse class="cls-15" cx="1377.92" cy="2029.8" rx="20.79" ry="45.47"/><ellipse class="cls-15" cx="1515" cy="2028.54" rx="20.79" ry="45.47"/><ellipse class="cls-15" cx="1723.09" cy="2030.8" rx="20.79" ry="45.47"/><ellipse class="cls-15" cx="1689.72" cy="2031.37" rx="20.79" ry="45.47"/><ellipse class="cls-15" cx="1653.83" cy="2029.71" rx="20.79" ry="45.47"/><ellipse class="cls-15" cx="1620.82" cy="2029.71" rx="20.79" ry="45.47"/><ellipse class="cls-15" cx="1585.55" cy="2029.19" rx="20.79" ry="45.47"/><ellipse class="cls-15" cx="1549.66" cy="2028.62" rx="20.79" ry="45.47"/><ellipse class="cls-16" cx="1405.06" cy="2148.55" rx="74.06" ry="122.63"/><ellipse class="cls-16" cx="2146.46" cy="2154.64" rx="74.06" ry="122.63"/><ellipse class="cls-16" cx="2027.55" cy="2156.19" rx="74.06" ry="122.63"/><ellipse class="cls-16" cx="1899.68" cy="2151.7" rx="74.06" ry="122.63"/><ellipse class="cls-16" cx="1782.1" cy="2151.7" rx="74.06" ry="122.63"/><ellipse class="cls-16" cx="1656.44" cy="2150.31" rx="74.06" ry="122.63"/><ellipse class="cls-16" cx="1528.57" cy="2148.76" rx="74.06" ry="122.63"/><ellipse class="cls-17" cx="1348.52" cy="2157.58" rx="64.01" ry="82.7"/><ellipse class="cls-17" cx="2181.9" cy="2138.97" rx="64.01" ry="82.7"/><ellipse class="cls-17" cx="2042.98" cy="2192.85" rx="64.01" ry="82.7"/><ellipse class="cls-17" cx="1853.52" cy="2121.85" rx="64.01" ry="82.7"/><ellipse class="cls-17" cx="1715.96" cy="2192.85" rx="64.01" ry="82.7"/><ellipse class="cls-17" cx="1582.63" cy="2100.26" rx="64.01" ry="82.7"/><ellipse class="cls-17" cx="1492.14" cy="2199.46" rx="64.01" ry="82.7"/><ellipse class="cls-18" cx="1381.41" cy="2100.98" rx="46.74" ry="80.94"/><ellipse class="cls-18" cx="2076.05" cy="2110.54" rx="46.74" ry="80.94"/><ellipse class="cls-18" cx="1954.8" cy="2116.42" rx="46.74" ry="80.94"/><ellipse class="cls-18" cx="1734.33" cy="2104.66" rx="46.74" ry="80.94"/><ellipse class="cls-18" cx="1635.13" cy="2210.49" rx="46.74" ry="80.94"/><ellipse class="cls-18" cx="1532.69" cy="2137.42" rx="46.74" ry="80.94"/><ellipse class="cls-18" cx="1428.13" cy="2199.46" rx="46.74" ry="80.94"/><ellipse class="cls-18" cx="1853.52" cy="2204.55" rx="46.74" ry="80.94"/><ellipse class="cls-18" cx="2212" cy="2204.61" rx="46.74" ry="80.94"/><ellipse class="cls-18" cx="1942.51" cy="2233.09" rx="33.62" ry="55.17"/><ellipse class="cls-15" cx="1779.34" cy="2155.86" rx="20.79" ry="45.47"/><ellipse class="cls-15" cx="1589.91" cy="2137.47" rx="20.79" ry="45.47"/><ellipse class="cls-15" cx="1436.83" cy="2085.3" rx="20.79" ry="45.47"/><ellipse class="cls-15" cx="2175.26" cy="2098.78" rx="20.79" ry="45.47"/><ellipse class="cls-15" cx="2001.53" cy="2161.89" rx="20.79" ry="45.47"/><ellipse class="cls-15" cx="2122.79" cy="2156.01" rx="20.79" ry="45.47"/><ellipse class="cls-15" cx="1888.66" cy="2098.78" rx="20.79" ry="45.47"/><ellipse class="cls-15" cx="1685.31" cy="2098.78" rx="20.79" ry="45.47"/><path class="cls-19" d="M3738.83,3162.53c36.45,0,54.61,31.11,40.25,68.68-127.68,334.08-313.47,602.14-754.58,596.47-369.65-4.75-478.41-234.61-333.22-594.73,15.41-38.22,52.15-70.42,89.26-70.42Z" transform="translate(-1462.44 -1098.14)"/></svg>