<?xml version="1.0" encoding="utf-8"?>
<!-- Generator: Adobe Illustrator 25.2.3, SVG Export Plug-In . SVG Version: 6.00 Build 0)  -->
<svg version="1.1" id="Layer_1" xmlns="http://www.w3.org/2000/svg" xmlns:xlink="http://www.w3.org/1999/xlink" x="0px" y="0px"
	 viewBox="0 0 566.93 566.93" style="enable-background:new 0 0 566.93 566.93;" xml:space="preserve">
<style type="text/css">
	.st0{fill:none;}
	.st1{fill:none;stroke:#9E60FC;stroke-width:5;stroke-linecap:round;stroke-linejoin:round;stroke-miterlimit:10;}
	.st2{fill:#9291FF;}
	.st3{fill:#B4C9FF;}
	.st4{fill:#FF26FF;}
	.st5{fill:#8055FF;}
	.st6{fill:#6093FC;}
	.st7{fill:none;stroke:#F3F8F6;stroke-width:2;stroke-miterlimit:10;}
	.st8{fill:none;stroke:#FF26FF;stroke-width:1.5;stroke-miterlimit:10;}
	.st9{fill:none;stroke:#9E60FC;stroke-width:6;stroke-miterlimit:10;}
	.st10{fill:#9E60FC;}
</style>
<circle class="st0" cx="283.46" cy="283.5" r="141.73"/>
<path class="st1" d="M284.69,339.42c-4.83,0-8.73-4.7-8.71-10.5l0.01-1.44c0.02-5.8,3.96-10.5,8.79-10.5h37.32
	c4.83,0,8.77-4.7,8.79-10.5l0-0.52c0.02-5.8-3.88-10.5-8.71-10.5h-37.32c-4.83,0-8.73-4.7-8.71-10.5l0.01-3.54
	c0.02-5.8,3.96-10.5,8.79-10.5h3.7c4.83,0,8.77-4.7,8.79-10.5l0-0.52c0.02-5.8-3.88-10.5-8.71-10.5h-3.7c-4.83,0-8.73-4.7-8.71-10.5
	l0.03-8.97c0.02-5.8-3.88-10.5-8.71-10.5"/>
<path class="st2" d="M367.17,209.12L367.17,209.12c0,6.02,4.21,10.91,9.4,10.91h2.78c4.95,0,8.96-4.65,8.96-10.4v-0.51
	c0-5.74-4.01-10.4-8.96-10.4h-3.22C371.18,198.73,367.17,203.38,367.17,209.12z"/>
<path class="st3" d="M319.87,260.09v0.51c0,5.74,4.01,10.4,8.96,10.4h39.95c4.95,0,8.96-4.65,8.96-10.4v-0.51
	c0-5.74-4.01-10.4-8.96-10.4h-39.95C323.88,249.7,319.87,254.35,319.87,260.09z"/>
<path class="st4" d="M371.95,305.53L371.95,305.53c0,5.88,4.11,10.65,9.18,10.65h5.06c5.07,0,9.18-4.77,9.18-10.65v0
	c0-5.88-4.11-10.65-9.18-10.65h-3.07h-1.99C376.06,294.88,371.95,299.65,371.95,305.53z"/>
<path class="st3" d="M279.24,198.73h-93.88c-2.56,0-4.63,2.4-4.63,5.37v13.77c0,1.19,0.83,2.16,1.86,2.16h96.65h53.88
	c2.52,0,4.56-2.37,4.56-5.28v-10.73c0-2.92-2.04-5.28-4.56-5.28H279.24z"/>
<path class="st5" d="M341.85,338.86l-12.19-0.07h-46.17c-4.73,0-8.57-4.65-8.57-10.4v-1.42c0-5.74,3.84-10.4,8.57-10.4h36.56
	c4.73,0,8.57-4.65,8.57-10.4v-0.51c0-5.74-3.84-10.4-8.57-10.4h-36.56c-4.73,0-8.57-4.65-8.57-10.4v-3.5c0-5.74,3.84-10.4,8.57-10.4
	h3.62c4.73,0,8.57-4.65,8.57-10.4v-0.51c0-5.74-3.84-10.4-8.57-10.4h-3.62c-4.73,0-8.57-4.65-8.57-10.4v-8.88
	c0-5.74-3.84-10.4-8.57-10.4h-85.61V349.7c0,5.74,3.84,10.4,8.57,10.4h85.61h65.87"/>
<ellipse transform="matrix(0.6244 -0.7811 0.7811 0.6244 -141.4755 289.1635)" class="st6" cx="229.94" cy="291.69" rx="32.13" ry="20.66"/>
<ellipse class="st7" cx="228.62" cy="292.1" rx="17.34" ry="21.37"/>
<path class="st8" d="M187.59,301.98c11.24-0.03,25.2-0.06,25.2-0.06l2.7-10.67l2.75,8.75l4.39-14.34l2.75,10.98l3.36-18.48
	l3.97,18.46l5.25-9.41l1.05,11.46l5.09-7.81l2.07,9.71l21.8-0.85"/>
<g>
	<rect x="191.82" y="209.53" class="st5" width="1.8" height="3.83"/>
	<rect x="194.07" y="209.53" class="st5" width="1.8" height="3.83"/>
	<rect x="196.31" y="209.53" class="st5" width="1.8" height="3.83"/>
	<rect x="198.56" y="209.53" class="st5" width="1.8" height="3.83"/>
	<rect x="200.81" y="209.53" class="st5" width="1.8" height="3.83"/>
	<rect x="203.06" y="209.53" class="st5" width="1.8" height="3.83"/>
</g>
<path class="st9" d="M346.43,371h2.32c5.06,0,10.94-4.76,13.11-10.64l0.19-0.52c2.18-5.87-0.16-10.64-5.23-10.64h-11.97"/>
<path class="st10" d="M344.87,333.22l-0.4,17.61c-0.1,32.51-20.35,43.6-45.46,43.6c-23.92,0-42.98-7.83-45.33-40.21v-12.18v-8.81
	h10.28H344.87z"/>
</svg>
