<svg id="Layer_1" data-name="Layer 1" xmlns="http://www.w3.org/2000/svg" viewBox="0 0 286.46 286.46"><defs><style>.cls-1{fill:#fff;stroke:#8055ff;stroke-width:3px;}.cls-1,.cls-10,.cls-8,.cls-9{stroke-miterlimit:10;}.cls-10,.cls-2,.cls-8,.cls-9{fill:none;}.cls-10,.cls-2{stroke:#9e60fc;}.cls-2{stroke-linecap:round;stroke-linejoin:round;stroke-width:5px;}.cls-3{fill:#9291ff;}.cls-4{fill:#b4c9ff;}.cls-5{fill:#ff26ff;}.cls-6{fill:#8055ff;}.cls-7{fill:#6093fc;}.cls-8{stroke:#f3f8f6;stroke-width:2px;}.cls-9{stroke:#ff26ff;stroke-width:1.5px;}.cls-10{stroke-width:6px;}.cls-11{fill:#9e60fc;}</style></defs><circle class="cls-1" cx="143.23" cy="143.23" r="141.73"/><path class="cls-2" d="M284.69,339.42c-4.83,0-8.73-4.7-8.7-10.51v-1.43c0-5.8,4-10.5,8.79-10.5h37.33c4.83,0,8.76-4.71,8.79-10.51V306c0-5.81-3.88-10.51-8.71-10.51H284.86c-4.83,0-8.73-4.7-8.7-10.5v-3.54c0-5.8,4-10.5,8.79-10.5h3.7c4.83,0,8.76-4.7,8.78-10.5v-.52c0-5.8-3.88-10.5-8.71-10.5H285c-4.83,0-8.73-4.71-8.71-10.51l0-9c0-5.8-3.88-10.5-8.71-10.5" transform="translate(-140.23 -140.27)"/><path class="cls-3" d="M367.17,209.12h0c0,6,4.21,10.91,9.4,10.91h2.79c4.95,0,9-4.65,9-10.4v-.51c0-5.74-4-10.39-9-10.39h-3.23C371.18,198.73,367.17,203.38,367.17,209.12Z" transform="translate(-140.23 -140.27)"/><path class="cls-4" d="M319.87,260.09v.51c0,5.74,4,10.4,9,10.4h39.95c5,0,9-4.66,9-10.4v-.51c0-5.74-4-10.39-9-10.39H328.83C323.88,249.7,319.87,254.35,319.87,260.09Z" transform="translate(-140.23 -140.27)"/><path class="cls-5" d="M372,305.53h0c0,5.89,4.11,10.65,9.18,10.65h5.06c5.07,0,9.18-4.76,9.18-10.65h0c0-5.88-4.11-10.65-9.18-10.65h-5.06C376.06,294.88,372,299.65,372,305.53Z" transform="translate(-140.23 -140.27)"/><path class="cls-4" d="M279.24,198.73H185.36c-2.56,0-4.63,2.4-4.63,5.37v13.77a2,2,0,0,0,1.86,2.16H333.12c2.51,0,4.55-2.37,4.55-5.28V204c0-2.92-2-5.28-4.55-5.28Z" transform="translate(-140.23 -140.27)"/><path class="cls-6" d="M341.85,338.86l-12.2-.06H283.48c-4.73,0-8.57-4.66-8.57-10.4V327c0-5.74,3.84-10.39,8.57-10.39H320c4.73,0,8.57-4.66,8.57-10.4v-.51c0-5.74-3.84-10.39-8.57-10.39H283.48c-4.73,0-8.57-4.66-8.57-10.4v-3.5c0-5.74,3.84-10.39,8.57-10.39h3.62c4.73,0,8.57-4.66,8.57-10.4v-.51c0-5.74-3.84-10.39-8.57-10.39h-3.62c-4.73,0-8.57-4.66-8.57-10.4v-8.88c0-5.74-3.84-10.39-8.57-10.39H180.73V349.7c0,5.75,3.83,10.4,8.57,10.4H340.78" transform="translate(-140.23 -140.27)"/><ellipse class="cls-7" cx="229.94" cy="291.69" rx="32.13" ry="20.66" transform="translate(-281.71 148.9) rotate(-51.36)"/><ellipse class="cls-8" cx="88.39" cy="151.83" rx="17.34" ry="21.37"/><path class="cls-9" d="M187.59,302l25.2-.07,2.7-10.67,2.74,8.75,4.39-14.34,2.76,11,3.36-18.48,4,18.46L238,287.2,239,298.66l5.08-7.81,2.07,9.71,21.8-.86" transform="translate(-140.23 -140.27)"/><rect class="cls-6" x="51.59" y="69.26" width="1.8" height="3.83"/><rect class="cls-6" x="53.83" y="69.26" width="1.8" height="3.83"/><rect class="cls-6" x="56.08" y="69.26" width="1.8" height="3.83"/><rect class="cls-6" x="58.33" y="69.26" width="1.8" height="3.83"/><rect class="cls-6" x="60.58" y="69.26" width="1.8" height="3.83"/><rect class="cls-6" x="62.82" y="69.26" width="1.8" height="3.83"/><path class="cls-10" d="M346.43,371h2.33c5.06,0,10.93-4.77,13.11-10.64l.19-.52c2.18-5.88-.16-10.64-5.22-10.64h-12" transform="translate(-140.23 -140.27)"/><path class="cls-11" d="M344.87,333.22l-.4,17.61c-.1,32.51-20.35,43.6-45.46,43.6-23.92,0-43-7.84-45.32-40.22v-21h91.18Z" transform="translate(-140.23 -140.27)"/></svg>